<?xml version="1.0" encoding="utf-8"?><svg viewBox="0 0 146 108" xmlns="http://www.w3.org/2000/svg" xmlns:xlink="http://www.w3.org/1999/xlink"><style>:root>svg{display:none}:root>svg:target{display:block}</style><svg fill="none" viewBox="0 0 70 70" id="chain" xmlns="http://www.w3.org/2000/svg"><path fill-rule="evenodd" clip-rule="evenodd" d="M0 48.426v3.24c.195.325.298 1.258.439 1.824 1.083 4.348 3.634 6.409 6.647 9.424 2.94 2.94 5.09 5.569 9.339 6.626.522.13 1.617.285 1.91.46h2.985c.182-.1 2.627-.597 3.177-.785 3.027-1.04 4.668-2.665 6.731-4.737 2.574-2.586 5.082-5.074 7.654-7.66.448-.449 1.721-1.317 1.268-2.362-.605-1.396-3.743.457-9.235-2.25-1.257-.62-1.52-1.112-2.64.023l-5.737 5.746c-1.762 1.784-3.555 1.651-5.282-.09-1.3-1.31-2.527-2.524-3.825-3.831-1.347-1.355-3.265-2.687-2.516-4.966.383-1.168 2.801-3.305 3.575-4.082l15.322-15.302c2.168-1.805 3.795-.574 5.24.87 1.3 1.302 2.527 2.526 3.827 3.829 2.273 2.278 2.004 2.314 4.294.02 6.12-6.13 6.008-4.907 2.756-8.164-4.213-4.22-7.501-8.547-14.87-8.122-4.995.288-7.808 2.909-10.116 5.212-2.58 2.575-5.077 5.078-7.656 7.656-2.187 2.186-9.78 9.4-11.206 11.768C.161 45.963.383 47.803 0 48.426z" fill="#709491"/><path fill-rule="evenodd" clip-rule="evenodd" d="M70 18.498c-.274-.483-.278-1.364-.437-1.991-1.112-4.38-3.604-6.374-6.65-9.42-2.295-2.297-4.496-4.923-7.767-6.123C53.759.456 51.736.134 51.5 0h-2.82c-.561.307-2.93.288-5.703 1.957-1.792 1.078-2.902 2.255-4.151 3.51-2.574 2.586-5.081 5.074-7.654 7.66-.462.463-1.701 1.321-1.356 2.34.529 1.56 3.585-.446 9.195 2.295 1.013.496 1.557 1.157 2.547.173l5.795-5.8c1.6-1.62 3.367-2.011 5.227-.185l5.731 5.754c2.594 2.811-.76 5.26-2.638 7.127L44.192 36.318c-1.278 1.266-2.569 2.707-3.886 3.879-1.99 1.772-3.65.926-5.191-.607-1.305-1.299-2.523-2.527-3.829-3.828-.31-.31-1.589-1.706-2.016-1.815-.929-.238-1.86 1.045-2.279 1.465-1.299 1.303-2.524 2.526-3.827 3.829-2.029 2.029-1.685 1.905.743 4.336 1.301 1.302 2.526 2.522 3.828 3.828 2.378 2.388 5.872 4.74 10.984 4.47 5.087-.27 7.812-2.702 10.229-5.115l15.367-15.367c2.619-2.62 4.327-4.371 5.283-8.178l.402-1.64v-3.077z" fill="#5B606D"/></svg><svg fill="none" viewBox="0 0 146 108" id="delivery" xmlns="http://www.w3.org/2000/svg"><g clip-path="url(#bclip0_30_198)" fill-rule="evenodd" clip-rule="evenodd"><path d="M28.364 91.561c0 6.306 7.45 9.281 11.922 5.152 4.209-3.884 2.27-12.194-5.16-12.194-3.645 0-6.762 3.244-6.762 7.042zm79.962 0c0 9.08 14.111 9.692 14.111-.293 0-8.685-14.111-9.186-14.111.293zM.141 79.823c0 4.533-.76 10.356 1.248 12.548 2.159 2.357 7.646 1.539 12.276 1.539l-.034-3.533c.091-1.389.068-1.86.293-2.959.402-1.957.788-3.248 1.599-4.86 2.873-5.71 3.97-5.161 5.49-7.43-2.822 0-16.574-.526-18.52.586a4.667 4.667 0 00-2.352 4.109zm103.481-50.77v17.021c0 .677.205.88.882.88h22.049c2.348 0-.596-4.057-1.595-5.744-.936-1.579-1.652-2.934-2.578-4.47l-3.853-6.718c-.423-.784-.668-1.85-1.676-1.85h-12.347c-.677 0-.882.205-.882.88zM18.957 91.56c0 2.545.588 4.67 1.378 6.547.865 2.055 1.96 3.418 3.355 4.87l2.152 1.96c.74.513 1.794 1.117 2.613 1.5 10.855 5.083 23.427-2.83 23.427-15.17 0-4.43-2.473-9.124-4.84-11.309-11.796-10.885-28.085-1.85-28.085 11.602zm79.962 0c0 15.306 18.834 21.548 28.084 11.603 12.984-13.958-2.386-33.682-18.385-26.572-1.374.611-3.915 2.212-4.912 3.314-.454.5-.411.596-.902 1.155-2.509 2.855-3.885 6.374-3.885 10.5zm-4.704-66.03v49.596h-44.39c1.346 2.008 2.751 1.993 5.292 7.042 2.467 4.9 2.057 7.316 2.057 11.74h36.453c0-2.521-.344-2.283.074-5.502 2.03-15.63 21.309-25.282 36.131-13.325 3.212 2.59 7.304 9.022 7.304 14.719v4.109c10.02 0 8.819-1.228 8.819-14.087 0-2.445-1.862-4.632-4.703-4.696v-21.13c0-3.295-2.506-6.49-4.309-9.785l-12.831-22.406c-.817-1.489-1.689-3.024-4.321-3.024h-18.814c-3.931 0-6.762 2.826-6.762 6.75z" fill="#5B606D"/><path d="M9.55 10.858v48.716c0 .684.784 1.467 1.47 1.467h67.614c.686 0 1.47-.783 1.47-1.467V10.858c0-.684-.784-1.467-1.47-1.467H11.019c-.685 0-1.47.783-1.47 1.467zM.14 9.684v56.053c0 2.83 2.616 4.695 4.41 4.695h84.96V9.684c0-5.38-4.094-9.684-9.407-9.684H9.843C4.295 0 .141 4.146.141 9.684z" fill="#fff"/></g><defs><clipPath id="bclip0_30_198"><path fill="#fff" d="M0 0h146v108H0z"/></clipPath></defs></svg><svg fill="none" viewBox="0 0 50 46" id="email" xmlns="http://www.w3.org/2000/svg"><g clip-path="url(#cclip0_56_49)"><path d="M50 17.824V40.75c0 2.796-2.25 5.083-5 5.083H5c-2.75 0-5-2.287-5-5.083l.025-30.5C.025 7.454 2.25 5.167 5 5.167h25.25C30.1 5.98 30 6.844 30 7.707c0 .864.1 1.729.25 2.542H5l20 12.708 9.175-5.82a12.039 12.039 0 004.075 2.49L25 28.042 5 15.333V40.75h40V20.162c1.85-.38 3.55-1.22 5-2.338z" fill="#5B606D"/><path d="M34.643 8.071c0 4.22 3.35 7.625 7.5 7.625s7.5-3.405 7.5-7.625c0-4.219-3.35-7.625-7.5-7.625s-7.5 3.406-7.5 7.625z" fill="#F48020"/></g><defs><clipPath id="cclip0_56_49"><path fill="#fff" d="M0 0h50v46H0z"/></clipPath></defs></svg><svg fill="none" viewBox="0 0 108 70" id="feather" xmlns="http://www.w3.org/2000/svg"><path fill-rule="evenodd" clip-rule="evenodd" d="M.055 20.2c1.502 3.223 6.58 9.096 9.1 11.628.488.49 3.264 2.972 3.45 3.366-1.248 3.512-2.188 6.042-1.738 10.288.267 2.52 1.622 7.857 3.079 8.882 1.531 1.078 3.427-.142 3.38-1.872-.05-1.695-4.223-6.241-1.287-14.52 1.827.677 1.395 2.006 1.612 3.63 1.243 9.28 6.639 16.969 14.177 22.034 4.061 2.73 8.912 4.88 14.653 5.942 1.198.221 3.43.714 4.394.063 1.391-.939 1.074-2.276.343-3.541-.682-1.178-3.199-5.688-3.506-6.752.652.601 1.265 1.377 1.884 2.021l4.105 3.77c1.209.994 5.397 4.785 6.694 4.856 1.355.075 5.208-.755 6.6-1.08 23.695-5.534 39.822-24.476 40.954-52.458.248-6.133-.332-8.649-3.418-12.285-2.066-2.436-6.365-4.71-11.184-4.06-6.817.92-9.622 6.051-11.97 11.298-.728 1.626-1.68 3.856-2.593 5.178-3.58 5.186-10.48 10.805-19.468 11.676-2.967.288-4.241.17-6.958-.562-3.05-.821-3.972-1.77-6.122-1.184-5.57 1.518-6.362 1.899-11.468 3.966.636-1.269 5.427-4.533 5.85-5.098 1.017-1.357.145-3.117-1.174-3.446-.893-.224-3.474.656-4.379.934-4.448 1.362-11.129 4.707-13.697 8.116.355.586 3.824 3.003 4.715 3.634 5.013 3.542 10.511 6.529 16.824 8.047 8.787 2.115 21.24.965 29.073-1.995 7.695-2.908 13.816-8.333 17.332-15.933.446-.963.868-1.848 1.283-2.915.424-1.086.769-1.99 2.05-2.122 1.276-.132 2.222.723 2.38 1.799.142.97-.581 2.371-.917 3.167-4.92 11.65-14.078 19.408-27.736 22.113-18.21 3.606-31.252.182-45.235-10.397l-2.342-1.832c-2.167-1.616-4.782-3.934-6.609-5.8a73.802 73.802 0 01-3.917-4.318 51.062 51.062 0 01-3.566-4.795c-.53-.813-.922-1.89-2.083-2.118a2.167 2.167 0 00-1.696.333c-.62.42-.5.71-.924 1.17L.055 20.2z" fill="#709491"/></svg><svg fill="none" viewBox="0 0 60 72" id="fire" xmlns="http://www.w3.org/2000/svg"><path fill-rule="evenodd" clip-rule="evenodd" d="M59.92 0H.067c-.156 1.184.006 23.826.006 25.71 0 4.54-.067 7.857.816 11.992C3.732 51 11.555 60.445 21.904 67.504c1.14.778 7.168 4.407 8.172 4.494 1.106.097 7.477-3.863 8.269-4.377 2.668-1.732 4.901-3.567 7.172-5.475 4.295-3.608 8.65-9.312 11.027-14.364 3.87-8.221 3.402-13.39 3.404-22.192V6.368c0-1.946.136-4.496-.03-6.368h.001zM3.495 3.534c-.143 1.13-.06 12.838-.031 14.848.07 4.866-.18 9.862.161 14.652.556 7.829 4.73 16.08 8.67 21.052 4.165 5.257 9.297 9.594 16.112 13.231 2.28 1.217 1.387 1.204 4.812-.653 4.425-2.4 9.394-6.334 12.529-9.569 4.409-4.548 8.81-10.535 10.361-19.106.755-4.17.433-9.907.433-14.44V4.804c.012-1.577.381-1.287-2.294-1.287H10.797c-2.334 0-5.01-.125-7.301.015v.001z" fill="#5B606D"/><path fill-rule="evenodd" clip-rule="evenodd" d="M27.026 17.328c-.4-.316-2.025-4.247-5.01-4.478.565 1.492 1.544 2.184 1.562 5.651.009 1.603-.494 5.037-1.217 5.997-.332-.28-.65-.756-.932-1.073-.92-1.035-2.43-2.077-3.968-2.022.07.662 1.84 2.63 1.37 5.1-.15.788-.66 1.457-.919 2.3-.184.6-.418 2.322-.69 2.643-.885-.67-.832-1.423-1.297-2.467-1.122.563-1.405 5.181-1.362 6.585.264 8.584 4.039 12.746 12.923 12.46-.167-.423-.65-.586-.987-.858-2.02-1.63-4.915-5.58-5.28-8.231.496.172.953.88 2.238.997-.656-2.063-.982-2.394-1.012-5.138.366.258.253.22.553.83.154.312.337.631.51.924.373.629.722 1.194 1.063 1.668.435.604 1.921 2.732 2.452 3-.29-4.182-.217-2.967-.082-7.179.183.09.332.432.412.623.273.65.519 1.034 1.082 1.44.954-.37 1.744-2.428 2.034-3.707.426-1.878.26-3.485.156-5.396 1 .42 1.474 2.327 1.653 3.659.209 1.567.081 3.873-.075 5.461 1.47-.448 2.928-3.18 3.803-4.123.228 1.362-.603 3.713-.632 5.065.983.022 2.001-1.087 2.872-1.517.296.515.231 1.372.231 2.063 0 3.411-2.41 6.515-4.68 8.52-.546.482-1.202 1.04-1.935 1.368-.385.173-.528.162-.767.444 1.275.599 5.21-.288 6.341-.704 3.422-1.26 5.971-4.078 7.582-7.328.647-1.305 1.761-4.147 1.85-5.64-.392.149-1.097.7-1.714.968-.626.272-1.44.586-2.09.652-.005-1.342 1.406-4.711.035-9.997-.273-1.056-1.076-3.349-1.827-3.79-.057 1.18-.794 3.143-1.548 3.54.191-3.137.009-5.379-1.428-8.28-.608-1.226-2.268-3.772-3.234-4.182.16 1.128.426 2.755-.086 3.8l-.402-1.797a7.152 7.152 0 00-.592-1.53c-1.461-2.867-3.376-2.803-4.268-4.273-.863-1.424-.398-2.09-.5-3.558-2.934 1.461-2.088 6.022-2.064 7.998.015 1.295-.05 2.276-.124 3.512zM14.752 52.004l32.11.006.04-1.8-32.153-.022.003 1.816z" fill="#709491"/><path fill-rule="evenodd" clip-rule="evenodd" d="M28.48 32.25c.139-.886-.117-2.321-.003-4.196-.234.163-.063-.003-.234.21l-.362.727c-.466 1.192-.618 2.715.6 3.259z" fill="#709491"/></svg><svg fill="none" viewBox="0 0 73 70" id="house" xmlns="http://www.w3.org/2000/svg"><g clip-path="url(#fclip0_30_312)" fill-rule="evenodd" clip-rule="evenodd"><path d="M10.367 45.083l.03 10.93c-.02 2.909-.369 7.368.902 9.645.724 1.297 1.448 1.946 2.655 2.814 2.591 1.422 4.368 1.106 7.635 1.106 2.251 0 25.168-.123 26.258.06-.34-.306-2.812-1.116-4.511-2.182-4.121-2.587-7.122-6.66-8.072-11.973-1.24-6.924 3.113-8.618 1.344-16.741-.195-.895-.45-1.709-.848-2.53-.19-.394-.359-.725-.576-1.038-.213-.307-.155-.194-.412-.462-.288-.299-.25-.08-.285-.491 2.107.514 3.4.403 6.787 1.362 3.12.884 6.492 2.443 8.997 4.332 1.68 1.267 3.333 2.962 4.497 4.73l.961 1.26-.022-11.24c-1.148-1.126-22.048-22.126-22.633-22.428-.662.315-6.48 6.321-7.146 6.984L11.819 33.267c-1.875 1.867-1.405.668-1.405 5.375 0 1.267.119 5.833-.047 6.441z" fill="#709491"/><path d="M1.447 36.2c1.37.186 1.672.496 3.23.022 2.31-.702 4.327-3.09 6.134-4.951l7.446-7.382c2.534-2.396 4.852-4.89 7.372-7.328l7.445-7.357c.82 1.034 22.88 22.8 24.755 24.682 2.505 2.515 6.908 3.968 8.068.76.503-1.392.043-2.45-.347-3.614-.861-1.403-.368-.846-1.572-2.279l-8.142-7.802c-.348-.292-.62-.647-1.006-.98L37.456 3.577C36.814 3.045 33.506.032 33.112 0c-.489-.04-5.94 4.869-7.177 6.05-.39.371-.717.783-1.124 1.126-3.094 2.609-7.153 6.863-10.281 9.65-.724.646-1.417 1.458-2.212 2.15l-6.79 6.538c-.385.384-.657.681-1.076 1.046l-2.304 2.176c-.214.218-.32.387-.503.615-.25.31-.267.28-.49.639-.513.826-1.086 2.007-1.149 3.196a3.621 3.621 0 00.372 1.84c.403.847.665.667 1.07 1.175z" fill="#5B606D"/><path d="M54.3 70c6.709-.595 12.737-1.974 16.32-7.896 3.372-5.578 2.74-12.862.706-18.903-.033-.103-.064-.2-.102-.277-.222-.444-.073-.176-.238-.35-.401 2.293-4.16 4.623-6.276 5.445-3.664 1.423-4.465.334-8.08 2.15l-.995.486c-.372.41-1.717 1.278-2.328 1.914l-.06.064-.608.622c-.63-1.118-.747-1.675-1.727-3.293-1.238-2.044-2.027-2.747-3.453-4.264-.852-.908-3.325-3.082-4.255-3.365.315.52 1.511 1.734 2.114 2.521 1.969 2.566 4.859 7.28 5.512 10.42.193.927-2.462 3.569-2.058 9.104.145 1.988.553 3.056.62 3.886 7.312-.639 14.058-7.385 17.29-13.31.42-.77 1.13-1.974 1.439-2.85-.068 1.75-1.282 4.992-1.978 6.401-1.18 2.39-1.747 3.147-3.275 5.068-2.008 2.526-5.682 4.923-8.931 5.91-.264.08-.506.142-.777.216-.18.049-.246.059-.397.117l1.536.184z" fill="#709491"/></g><defs><clipPath id="fclip0_30_312"><path fill="#fff" d="M0 0h73v70H0z"/></clipPath></defs></svg><svg fill="none" viewBox="0 0 39 54" id="location" xmlns="http://www.w3.org/2000/svg"><g clip-path="url(#gclip0_57_57)"><path d="M20 5.667c5.147 0 13.333 3.733 13.333 13.733 0 5.76-4.586 12.454-13.333 19.52C11.253 31.853 6.667 25.133 6.667 19.4c0-10 8.186-13.733 13.333-13.733zm0-5.334C11.28.333 1.333 6.893 1.333 19.4c0 8.32 6.214 17.093 18.667 26.267C32.453 36.493 38.667 27.72 38.667 19.4 38.667 6.894 28.72.333 20 .333z" fill="#5B606D"/><path d="M19.667 14c-2.934 0-5.334 2.4-5.334 5.333 0 2.934 2.4 5.334 5.334 5.334a5.333 5.333 0 100-10.667zM1 48.667h37.333V54H1v-5.333z" fill="#F48020"/></g><defs><clipPath id="gclip0_57_57"><path fill="#fff" d="M0 0h39v54H0z"/></clipPath></defs></svg><svg fill="none" viewBox="0 0 46 42" id="phone" xmlns="http://www.w3.org/2000/svg"><g clip-path="url(#hclip0_51_11)"><path d="M43 29.167a30.26 30.26 0 01-8.925-1.33 2.97 2.97 0 00-.775-.117 2.66 2.66 0 00-1.775.677l-5.5 5.133C18.95 30.17 13.15 24.78 9.55 18.153l5.5-5.156c.7-.607.9-1.517.625-2.334a24.9 24.9 0 01-1.425-8.33C14.25 1.05 13.125 0 11.75 0H3C1.625 0 .5 1.05.5 2.333.5 24.243 19.525 42 43 42c1.375 0 2.5-1.05 2.5-2.333V31.5c0-1.283-1.125-2.333-2.5-2.333zM5.575 4.667h3.75a30.23 30.23 0 001.125 6.02l-3 2.823c-1-2.823-1.65-5.763-1.875-8.843zM40.5 37.263c-3.3-.21-6.5-.816-9.5-1.773l3-2.8c2.125.56 4.3.91 6.5 1.05v3.523z" fill="#5B606D"/><path d="M27.891 22.522h5c0-6.44-5.6-11.667-12.5-11.667v4.667c4.15 0 7.5 3.127 7.5 7zm10 0h5c0-11.597-10.075-21-22.5-21v4.667c9.675 0 17.5 7.303 17.5 16.333z" fill="#F48020"/></g><defs><clipPath id="hclip0_51_11"><path fill="#fff" d="M0 0h46v42H0z"/></clipPath></defs></svg><svg fill="none" viewBox="0 0 66 68" id="settings" xmlns="http://www.w3.org/2000/svg"><g clip-path="url(#iclip0_77_3862)"><path d="M33.36 21.027c-7.366 0-13.333 5.967-13.333 13.333 0 7.367 5.967 13.334 13.333 13.334 7.367 0 13.334-5.967 13.334-13.334 0-7.366-5.967-13.333-13.334-13.333zm0 20c-3.666 0-6.666-3-6.666-6.667 0-3.666 3-6.666 6.666-6.666 3.667 0 6.667 3 6.667 6.666 0 3.667-3 6.667-6.667 6.667z" fill="#709491"/><path d="M57.767 37.267C57.9 36.2 58 35.133 58 34s-.1-2.2-.233-3.267l7.033-5.5c.633-.5.8-1.4.4-2.133l-6.667-11.533c-.3-.534-.866-.834-1.466-.834-.2 0-.4.034-.567.1l-8.3 3.334a24.353 24.353 0 00-5.633-3.267L41.3 2.067c-.1-.8-.8-1.4-1.633-1.4H26.333c-.833 0-1.533.6-1.633 1.4L23.433 10.9c-2.033.833-3.9 1.967-5.633 3.267l-8.3-3.334c-.2-.066-.4-.1-.6-.1-.567 0-1.133.3-1.433.834L.8 23.1a1.643 1.643 0 00.4 2.133l7.033 5.5C8.1 31.8 8 32.9 8 34s.1 2.2.233 3.267l-7.033 5.5c-.633.5-.8 1.4-.4 2.133l6.667 11.533c.3.534.866.834 1.466.834.2 0 .4-.034.567-.1l8.3-3.334a24.35 24.35 0 005.633 3.267l1.267 8.833c.1.8.8 1.4 1.633 1.4h13.334c.833 0 1.533-.6 1.633-1.4l1.267-8.833c2.033-.833 3.9-1.967 5.633-3.267l8.3 3.334c.2.066.4.1.6.1.567 0 1.133-.3 1.433-.834L65.2 44.9c.4-.733.233-1.633-.4-2.133l-7.033-5.5zm-6.6-5.7c.133 1.033.166 1.733.166 2.433 0 .7-.066 1.433-.166 2.433L50.7 40.2l2.967 2.333 3.6 2.8-2.334 4.034-4.233-1.7-3.467-1.4-3 2.266c-1.433 1.067-2.8 1.867-4.166 2.434L36.533 52.4 36 56.167l-.667 4.5h-4.666l-.634-4.5L29.5 52.4l-3.533-1.433a18.91 18.91 0 01-4.1-2.367l-3.034-2.333L15.3 47.7l-4.233 1.7-2.334-4.033 3.6-2.8 2.967-2.334-.467-3.766c-.1-1.034-.166-1.8-.166-2.467s.066-1.433.166-2.433L15.3 27.8l-2.967-2.333-3.6-2.8 2.334-4.034 4.233 1.7 3.467 1.4 3-2.266c1.433-1.067 2.8-1.867 4.166-2.434l3.534-1.433.533-3.767.667-4.5H35.3l.633 4.5.534 3.767L40 17.033a18.91 18.91 0 014.1 2.367l3.033 2.333 3.534-1.433 4.233-1.7 2.333 4.033-3.566 2.834L50.7 27.8l.467 3.767z" fill="#5B606D"/></g><defs><clipPath id="iclip0_77_3862"><path fill="#fff" d="M0 0h66v68H0z"/></clipPath></defs></svg><svg fill="none" viewBox="0 0 70 70" id="snow" xmlns="http://www.w3.org/2000/svg"><path fill-rule="evenodd" clip-rule="evenodd" d="M31.618 6.74c-.509-.389-1.045-.934-1.547-1.4l-1.934-1.736c-.394-.349-.757-.76-1.192-1.08-2-1.468-5.085-.468-5.42 2.157-.275 2.15 1.312 2.96 2.15 3.83.978 1.013 2.13 1.836 3.108 2.833.79.803 2.388 2.085 3.146 2.851.507.514 1.079.908 1.555 1.413.257.27.148.892.148 1.305 0 1.304.082 6.782-.022 7.433-1.868.597-2.908 1.337-4.387 2.472-.553-.239-1.244-.691-1.861-1.034-.676-.378-1.23-.695-1.903-1.072-.357-.199-3.446-1.86-3.77-2.121-.24-.192-1.048-4.068-1.188-4.658-.376-1.572-.761-3.155-1.12-4.728-.179-.785-.367-1.552-.555-2.344-.212-.902-.582-1.38-1.11-1.852-1.803-1.611-4.887-.645-5.47 1.724-.227.917.03 1.66.23 2.505.28 1.202.973 3.704 1.117 4.768-.395-.128-1.402-.764-1.83-1.008-.484-.28-1.316-.794-1.882-.975-1.825-.578-3.325.414-3.96 1.469-.866 1.436-.359 3.281.65 4.09.498.4 1.147.72 1.779 1.08.366.208 1.672.892 1.836 1.062-.332.213-3.923 1.199-4.604 1.4-1.55.459-2.923.84-3.433 2.578-.825 2.816 1.937 4.754 4.337 4.02.78-.239 1.55-.47 2.34-.699.688-.2 8.87-2.707 9.28-2.764.31-.044 3.374 1.802 3.867 2.073.817.447 3.218 1.922 3.867 2.15-.066.892-.272 1.349-.28 2.496-.004 1 .208 1.662.279 2.54-.63.233-3.029 1.69-3.83 2.142-.485.272-3.57 2.117-3.858 2.097-.334-.026-1.853-.545-2.297-.672L4.58 38.313c-.914-.274-1.67-.287-2.54.07-2.25.92-2.84 4.075-.68 5.634 1.117.807 6.206 1.867 6.803 2.273l-.213.154c-.057.034-.141.079-.224.124l-1.378.78c-.597.33-1.341.704-1.784 1.076-.971.818-1.538 2.649-.64 4.095.658 1.059 2.115 2.032 3.951 1.466.421-.131 3.45-1.778 3.703-2.005.026.401-.918 4.025-1.081 4.7-.41 1.685-.655 3.067.825 4.322 1.259 1.065 3.029 1.032 4.33.055 1.167-.876 1.32-2.525 1.716-4.194.244-1.028 2.11-9.242 2.286-9.417l7.57-4.258c.3.209.603.495.937.738 1.034.754 2.137 1.375 3.457 1.73.096.9.018 5.87.018 7.33 0 2.04.074.98-1.68 2.798-.735.76-2.33 2.024-3.11 2.83-.842.867-2.27 1.958-3.137 2.86-.855.89-2.388 1.633-2.19 3.75.245 2.601 3.201 3.778 5.391 2.285.575-.391 1.06-.941 1.576-1.395.547-.486 1.007-.953 1.555-1.418.532-.452 1.048-1.043 1.584-1.425.13 1.392-.234 3.59.28 4.737 1.199 2.676 4.984 2.622 6.179.044.574-1.244.123-3.328.3-4.772.399.243 1.841 1.652 2.316 2.084l.794.72c1.176 1.014 2.045 2.204 3.874 2.093a3.32 3.32 0 003.11-2.852c.294-2.132-1.311-2.948-2.143-3.828l-7.818-7.088c-.264-.246-.143-.936-.143-1.308 0-1.484-.079-6.527.018-7.442a11.31 11.31 0 002.4-1.038c.732-.42 1.33-.97 1.99-1.429.559.231 1.305.72 1.868 1.033.678.378 1.235.697 1.903 1.071l2.797 1.578c.211.118.818.417.974.546.234.194 2.496 10.24 2.86 11.732.858 3.5 5.853 3.472 6.6.053.196-.903-.083-1.713-.272-2.522-.176-.75-1.099-4.246-1.083-4.704.314.264 1.366.764 1.786 1.01.496.292 1.32.802 1.875.982 1.821.597 3.32-.37 3.974-1.412.878-1.398.51-3.01-.601-4.094-.553-.54-1.933-1.194-2.696-1.621l-.922-.553c.782-.503 5.57-1.423 6.738-2.219 2.236-1.523 1.648-4.726-.572-5.674-1.55-.664-3.05.063-4.833.592-1.56.463-3.062.933-4.633 1.38l-3.47 1.035c-1.736.525-1.083.486-3.099-.632l-3.838-2.17c-.488-.267-1.513-.929-1.975-1.075.094-.88.282-1.517.286-2.492.002-1.005-.193-1.648-.286-2.551.452-.15 1.457-.79 1.931-1.057.897-.503 5.409-3.197 5.766-3.172.315.02 10.523 3.124 11.572 3.442 4.035 1.224 6.135-3.721 3.184-5.727-1.241-.844-5.995-1.763-6.79-2.247.452-.448 2.83-1.526 3.582-2.112.992-.775 1.567-2.635.7-4.085-.622-1.042-2.119-2.087-3.936-1.515-.81.254-2.033 1.032-2.821 1.494-.263.154-.662.406-.94.507.257-1.486.754-3.198 1.11-4.72.395-1.686.651-3.046-.86-4.314-1.849-1.55-4.805-.676-5.456 1.787-.495 1.872-2.569 11.514-2.852 11.8-.07.07-7.208 4.11-7.57 4.245-.68-.429-1.148-.958-1.988-1.421-.742-.411-1.507-.786-2.4-1.038-.106-.871-.019-4.698-.019-5.88 0-3.39-.285-2.337.89-3.518 1.238-1.243 2.67-2.342 3.903-3.55.766-.75 1.621-1.414 2.35-2.136.299-.296.535-.459.79-.72.863-.885 2.384-1.723 2.186-3.754-.153-1.56-1.441-2.832-3.067-2.958-1.683-.13-2.454.774-3.495 1.717-.146.131-.265.215-.41.346-.56.509-2.598 2.457-3.132 2.84-.142-1.462.252-3.514-.282-4.735A3.367 3.367 0 0035.037 0c-1.577-.018-2.633.946-3.114 1.963-.56 1.18-.151 3.347-.3 4.777h-.005zm2.793 22.397c-3.126.318-5.762 2.948-5.437 6.424.286 3.06 3.104 5.655 6.61 5.32 3.133-.3 5.794-3.014 5.438-6.483-.31-3.026-3.13-5.615-6.61-5.261z" fill="#5B606D"/></svg><svg fill="none" viewBox="0 0 64 73" id="steam" xmlns="http://www.w3.org/2000/svg"><path fill-rule="evenodd" clip-rule="evenodd" d="M30.605 73h2.759c.386-.227 1.014-.363 1.467-.583 1.553-.755 12.797-7.471 14.54-8.537l10.532-6.199c5.072-2.934 4.003-6.309 4.003-12.859 0-4.522.293-23.268-.264-25.132-.715-2.391-2.101-3.374-3.959-4.437-1.781-1.018-3.45-2.051-5.267-3.099C52.996 11.336 35.63.986 34.578.547c-.5-.21-1.208-.328-1.634-.547h-1.72c-.445.202-1.15.272-1.65.48-.948.394-3.045 1.726-4.045 2.298L4.45 15.168c-1.892 1.113-3.28 2.03-4.028 4.358-.627 1.946-.323 20.585-.323 25.15 0 7.052-1.09 9.9 3.956 12.98 6.742 4.114 14.2 8.295 21.069 12.395.897.535 1.79 1.052 2.634 1.55 1.775 1.043 2.287 1.086 2.847 1.399z" fill="#709491"/><path fill-rule="evenodd" clip-rule="evenodd" d="M63.946 38.927l.024-3.587-9.097.004c.862-8.128-4.404-12.833-11.958-11.505-4.879-13.752-26.43-11.255-26.43 5.605-2.954.77-5.463.655-7.31 4.724-.448.988-.122.801-.854 1.176H.038l.024 3.48 8.443-.002c.894 3.365 3.49 6.805 7.623 6.49 2.1-.16 2.704-3.114-.021-3.53-1.277-.195-1.733-.235-2.548-.912-.685-.568-1.232-1.237-1.484-2.215a4.444 4.444 0 011.853-4.867c2.614-1.637 4.075.495 5.615-.464 1.898-1.18-1.396-6.258 2.676-10.957 2.032-2.344 5.13-4.564 9.727-3.741 3.73.669 6.476 3.315 7.702 6.342.724 1.788.547 3.834 3.33 2.677 2.016-.836 3.873-.883 5.704.284 1.23.783 2.492 2.23 2.81 4.134.547 3.265-1.413 3.736-.577 6.293.956.479 7.292.616 13.034.57h-.003z" fill="#fff"/><path fill-rule="evenodd" clip-rule="evenodd" d="M31.824 31.029c-2.182.892-.818 2.493-.41 7.474.264 3.228.259 6.722.061 9.955-.494 8.076-1.583 8.884-2.12 12.51-.383 2.58 4.884 7.327 5.684-14.25.115-3.1.038-6.349-.25-9.394-.17-1.798-.284-7.392-2.965-6.295zM40.69 37.411c-1.657.554-1.114 2.701-1.352 5.824-.32 4.21-1.107 8.606-2.316 12.61-.225.747-.79 2.178-.645 2.993.164.92 1.167 1.631 2.316 1.232 2.26-.784 3.996-14.34 4.191-17.824.109-1.925.55-5.75-2.194-4.835zM24.087 39.15c-1.741.954-.05 4.776.25 6.866.288 2.005-.36 7.345 2.878 5.845 1.633-.757.686-5.765.346-7.637-.34-1.872-.899-6.485-3.474-5.074z" fill="#fff"/></svg><svg fill="none" viewBox="0 0 70 70" id="target" xmlns="http://www.w3.org/2000/svg"><g clip-path="url(#lclip0_76_3856)"><path d="M63.31 31.833C61.853 18.628 51.372 8.147 38.167 6.69V.167h-6.334V6.69C18.628 8.147 8.147 18.628 6.69 31.833H.167v6.334H6.69C8.147 51.372 18.628 61.853 31.833 63.31v6.523h6.334V63.31c13.205-1.457 23.686-11.938 25.143-25.143h6.523v-6.334H63.31zM35 57.167c-12.255 0-22.167-9.912-22.167-22.167S22.745 12.833 35 12.833 57.167 22.745 57.167 35 47.255 57.167 35 57.167z" fill="#5B606D"/><path d="M34.604 21.938c-6.998 0-12.666 5.668-12.666 12.666s5.668 12.667 12.666 12.667 12.667-5.669 12.667-12.667-5.669-12.666-12.667-12.666z" fill="#709491"/></g><defs><clipPath id="lclip0_76_3856"><path fill="#fff" d="M0 0h70v70H0z"/></clipPath></defs></svg><svg fill="none" viewBox="0 0 15 13" id="triangle" xmlns="http://www.w3.org/2000/svg"><path d="M13.13 1.25L7.5 11 1.87 1.25h11.26z" stroke="#fff" stroke-width="2"/></svg><svg fill="none" viewBox="0 0 70 70" id="warm" xmlns="http://www.w3.org/2000/svg"><path fill-rule="evenodd" clip-rule="evenodd" d="M3.229 34.984c0 8.417 3.42 16.594 9.189 22.36 4.508 4.505 12.402 9.41 21.978 9.41h1.215c9.37 0 17.371-4.83 21.777-9.236 4.42-4.42 9.36-12.342 9.36-21.787 0-5.707-.812-9.217-2.948-14.082-2.94-6.693-9.026-12.468-15.618-15.512C36.055.54 21.99 3.262 12.47 12.677 7.733 17.363 3.229 25.18 3.229 34.984zM32.909.104c-5.342.53-8.966 1.286-13.765 3.717-3.188 1.615-6.434 3.983-8.897 6.442-.383.383-.669.76-1.054 1.139-2.717 2.685-5.281 7.164-6.735 10.7C.647 26.512-.231 31.807.052 37.088c.993 18.54 17.155 34.113 37.178 32.84 18.499-1.177 33.9-17.086 32.705-37.047-.447-7.462-3.036-13.532-7.13-19.092-2.198-2.986-5.894-6.379-9.156-8.371a38.954 38.954 0 00-5.814-2.947C43.868.839 37.695-.37 32.91.104z" fill="#5B606D"/><path fill-rule="evenodd" clip-rule="evenodd" d="M33.151 15.91c.357.542.904.856 1.632 2.137 1.46 2.568 2.332 6.372 1.645 9.339-.46 1.982-1.552 3.672-2.511 5.062-1.04 1.505-2.084 2.83-3.1 4.472-2.241 3.616-3.086 7.368-1.994 12.317.391 1.776 1.274 4.353 2.199 5.39 1.206 1.354 3.648 1.599 5.328-.193-.234-.361-.566-.606-.866-.998a12.296 12.296 0 01-1.937-3.759c-.614-1.937-.982-4.62-.524-6.713.42-1.92 1.575-3.784 2.491-5.084 3.757-5.323 6.84-8.867 5.13-16.818-.37-1.728-1.26-4.353-2.19-5.378-1.5-1.652-4.36-1.336-5.303.226zM44.955 18.366c1.848 1.713 3.635 6.228 2.32 9.677-.615 1.617-1.541 2.819-2.428 4.025-3.305 4.49-5.646 7.72-4.105 14.336.598 2.566 1.706 5.348 4.72 4.77.984-.188 1.53-.69 1.983-1.23-.959-1.133-1.71-2.159-2.247-4.08-.48-1.721-.67-3.94-.1-5.691.856-2.64 3.406-5.254 5.017-7.883 1.897-3.098 2.612-6.244 1.59-10.414-.638-2.601-1.716-5.397-4.765-4.81-.82.157-1.719.668-1.985 1.3zM23.648 18.247c.101.24.726.925 1.205 1.972 1.085 2.371 1.346 5.695.245 7.988-2.381 4.96-9.204 7.853-7.968 17.428.345 2.679 1.105 5.618 4.184 5.444 1.147-.064 1.66-.595 2.266-1.006-.3-.715-1.448-1.585-1.95-4.47-.352-2.025-.258-3.965.495-5.692 2.206-5.058 9.324-7.919 7.967-17.447-.264-1.85-.755-3.741-1.864-4.592-1.4-1.075-3.688-.885-4.58.375z" fill="#709491"/></svg></svg>