<svg width="180" height="76" viewBox="0 0 180 76" fill="none" xmlns="http://www.w3.org/2000/svg">
<g clip-path="url(#clip0_1_7)">
<path fill-rule="evenodd" clip-rule="evenodd" d="M45.1461 75.0261L40.8354 76V49.3338L54.0581 46.3463L53.0896 51.9345L45.1461 53.7292C45.1461 53.7292 45.1461 60.8281 45.1461 75.0261Z" fill="white"/>
<path fill-rule="evenodd" clip-rule="evenodd" d="M63.0427 60.2741L61.3475 50.1293L59.8702 50.4629C59.5312 52.1081 58.6754 56.9369 57.3033 64.9492C56.7382 68.1738 56.2617 70.7248 55.8743 72.6023L51.2246 73.6527L56.3829 45.8513L64.8349 43.9417L69.993 69.4124L65.3433 70.4629L64.2052 65.4109L64.1809 65.4171L64.1567 65.4234L64.1326 65.4281L64.1082 65.4343L64.0841 65.4405L64.0599 65.4468L64.0357 65.453L64.0114 65.4593L63.9872 65.4655L63.963 65.4717L63.9389 65.478L63.9145 65.4842L63.8903 65.4889L63.8662 65.4951L63.842 65.5013L63.8177 65.5076L63.7935 65.5138L63.7693 65.52L63.745 65.5263L63.7208 65.5325L63.6966 65.5388L63.6725 65.545L63.6481 65.5512L63.624 65.5575L63.5998 65.5637L63.5756 65.57L63.5513 65.5762L63.5271 65.5824L63.5029 65.5887L63.4786 65.5949L63.4544 65.6011L63.4303 65.6074L63.4061 65.6136L63.3817 65.6183L63.3576 65.6245L63.3334 65.6307L63.3091 65.637L63.2847 65.6432L63.2606 65.6495L63.2364 65.6557L63.2122 65.6619L63.1879 65.6682L63.1637 65.6744L63.1395 65.6807L63.1154 65.6869L63.091 65.6931L63.0669 65.6994L63.0427 65.7056L63.0184 65.7118L62.9942 65.7181L62.97 65.7243L62.9458 65.7306L62.9215 65.7368L62.8973 65.7415L62.8732 65.7477L62.849 65.7539L62.8247 65.7602L62.8005 65.7664L62.7763 65.7726L62.752 65.7789L62.7278 65.7851L62.7036 65.7914L62.6795 65.7976L62.6551 65.8023L62.6309 65.8085L62.6068 65.8148L62.5826 65.821L62.5583 65.8272L62.5341 65.8335L62.5099 65.8397L62.4857 65.8459L62.4614 65.8522L62.4372 65.8584L62.4131 65.8631L62.3887 65.8693L62.3646 65.8756L62.3404 65.8818L62.3162 65.888L62.2919 65.8943L62.2677 65.9005L62.2435 65.9067L62.2194 65.913L62.195 65.9192L62.1709 65.9239L62.1467 65.9301L62.1223 65.9364L62.0982 65.9426L62.074 65.9488L62.0498 65.9551L62.0255 65.9613L62.0013 65.9675L61.9772 65.9738L61.953 65.98L61.9286 65.9863L61.9045 65.9909L61.8803 65.9972L61.856 66.0034L61.8318 66.0097L61.8076 66.0159L61.7834 66.0221L61.7591 66.0284L61.7349 66.0346L61.7108 66.0408L61.6866 66.0471L61.6623 66.0517L61.6381 66.058L61.6139 66.0642L61.5896 66.0705L61.5654 66.0767L61.5412 66.0829L61.4927 66.0939L61.4686 66.1001L61.4444 66.1063L61.4202 66.111L61.3959 66.1172L61.3717 66.1235L61.3475 66.1297L61.3233 66.1359L61.299 66.1422L61.2748 66.1484L61.2507 66.1547L61.2263 66.1609L61.2022 66.1671L61.178 66.1718L61.1538 66.178L61.1295 66.1843L61.1053 66.1905L61.0811 66.1967L61.057 66.203L61.0326 66.2092L61.0085 66.2154L60.9843 66.2217L60.96 66.2279L60.9358 66.2326L60.9116 66.2389L60.8874 66.2451L60.8631 66.2513L60.8389 66.2576L60.8148 66.2638L60.7906 66.27L60.7663 66.2763L60.7421 66.2825L60.7179 66.2888L60.6936 66.2934L60.6694 66.2996L60.6452 66.3059L60.6211 66.3121L60.5967 66.3184L60.5726 66.3246L60.5484 66.3308L60.5242 66.3371L60.4999 66.3433L60.4757 66.3496L60.4515 66.3558L60.4274 66.362L60.403 66.3683L60.3788 66.3745L60.3547 66.3807L60.3303 66.387L60.3062 66.3932L60.282 66.3995L60.2578 66.4057L60.2335 66.4119L60.2093 66.4182L60.1851 66.4244L60.161 66.4306L60.1366 66.4369L60.1125 66.4431L60.0883 66.4493L60.0639 66.4556L60.0398 66.4618L60.0156 66.468L59.9914 66.4743L59.9671 66.4805L59.9429 66.4852L59.9188 66.4914L59.8946 66.4977L59.8702 66.5039L59.8459 66.5102L59.8217 66.5164L59.7976 66.5226L59.7732 66.5289L59.7491 66.5351L59.7249 66.5413L59.7007 66.5476L59.6764 66.5538L59.6522 66.56L59.628 66.5663L59.6037 66.5725L59.5795 66.5787L59.5554 66.585L59.5312 66.5912L59.5069 66.5975L59.4827 66.6037L59.4585 66.6084L59.4343 66.6146L59.41 66.6209L59.3858 66.6271L59.3617 66.6333L59.3373 66.6396L59.3132 66.6458L59.289 66.6521L59.2648 66.6583L59.2405 66.6645L59.2163 66.6692L59.1921 66.6754L59.1679 66.6817L59.1436 66.6879L59.1194 66.6941L59.0953 66.7004L59.0709 66.7066L59.0468 66.7128L59.0226 66.7191L58.7804 66.7738L59.7491 61.1554L63.0427 60.2741Z" fill="white"/>
<path fill-rule="evenodd" clip-rule="evenodd" d="M78.4399 67.504L72.0299 68.9522L71.0828 63.7968C71.0828 63.7968 72.2484 63.5335 78.3672 62.1511C78.8193 62.049 79.1422 61.7143 79.3359 61.1479C79.3844 60.9559 79.4086 60.7794 79.4086 60.6185V57.9641C79.4086 57.3607 79.1817 57.0113 78.7304 56.9107C78.6011 56.8817 78.4797 56.8769 78.3672 56.9029L73.4994 58.0027L73.4979 52.6034L78.368 51.5031C78.8524 51.3938 79.1741 51.0384 79.3367 50.4397C79.3833 50.2679 79.4094 50.1015 79.4094 49.9406V47.3161C79.4094 46.7332 79.1985 46.3809 78.7797 46.2518C78.6336 46.2071 78.497 46.1951 78.368 46.2242L68.2426 48.5119L67.2955 43.3564L78.4407 40.8384C80.023 40.4809 81.3528 40.9183 82.4122 42.1733C83.3059 43.2318 83.7442 44.6073 83.7442 46.2765V49.082C83.7282 50.5135 83.3809 51.8888 82.703 53.2085C83.3971 54.2382 83.7442 55.4669 83.7442 56.8948V59.7002C83.7442 61.671 83.1519 63.4614 81.9522 65.0523C80.9405 66.3938 79.7641 67.2056 78.4407 67.5046L78.4399 67.504Z" fill="white"/>
<path fill-rule="evenodd" clip-rule="evenodd" d="M98.244 36.3936C99.8262 36.0363 101.15 36.4811 102.216 37.7285C103.103 38.795 103.548 40.1527 103.548 41.8016V55.2251C103.548 57.1961 102.95 58.98 101.756 60.5774C100.738 61.9132 99.5678 62.7307 98.244 63.0297L91.4147 64.5727C89.8324 64.9301 88.5085 64.4851 87.443 63.2377C86.555 62.1714 86.1111 60.8136 86.1111 59.1646V45.7411C86.1111 43.7703 86.7085 41.9864 87.9032 40.389C88.9041 39.0569 90.0745 38.2394 91.4147 37.9366L98.244 36.3936ZM98.1712 57.7069C98.6233 57.6048 98.9463 57.2604 99.14 56.6736C99.1884 56.4817 99.2127 56.3052 99.2127 56.1443V42.8715C99.2127 42.2683 98.9865 41.917 98.5346 41.8181C98.4054 41.7869 98.2844 41.7841 98.1712 41.8103L91.4873 43.3204C91.0028 43.4299 90.6719 43.7762 90.4944 44.3592C90.4621 44.5475 90.4379 44.7139 90.4217 44.8583V58.131C90.4217 58.7143 90.6396 59.0673 91.0755 59.19C91.2047 59.2412 91.3421 59.2505 91.4873 59.2176L98.1712 57.7069Z" fill="white"/>
<path fill-rule="evenodd" clip-rule="evenodd" d="M116.627 58.8763L106.068 61.2619V34.5957L119.267 31.6137V36.9831L110.379 38.9913C110.379 38.9913 110.379 44.3002 110.379 54.9186L116.555 53.5234C117.007 53.4213 117.33 53.0868 117.523 52.5202C117.572 52.3283 117.596 52.1518 117.596 51.9909V48.0393C117.596 47.4762 117.386 47.1213 116.966 46.9749C116.821 46.9474 116.684 46.9482 116.555 46.978L111.687 48.0777L112.631 42.4649L116.627 41.5621C118.209 41.2046 119.533 41.6494 120.599 42.8971C121.487 43.9633 121.931 45.321 121.931 46.97V51.0725C121.931 53.0433 121.334 54.8274 120.139 56.4246C119.122 57.7604 117.951 58.5779 116.627 58.8769V58.8763Z" fill="white"/>
<path fill-rule="evenodd" clip-rule="evenodd" d="M132.956 33.9506C133.295 35.4427 134.159 39.883 135.548 47.2714C136.096 50.2445 136.565 52.5821 136.952 54.2844L141.602 53.2338L136.444 27.7632L127.992 29.6728L122.833 57.4743L127.507 56.4182C127.83 54.7768 128.686 49.948 130.074 41.9321C130.64 38.7075 131.116 36.1563 131.503 34.279L132.956 33.9506Z" fill="white"/>
<path fill-rule="evenodd" clip-rule="evenodd" d="M155.004 23.5699C156.586 23.2125 157.91 23.6574 158.975 24.9049C159.863 25.9712 160.307 27.329 160.307 28.9778V42.4015C160.307 44.3724 159.71 46.1562 158.515 47.7537C157.498 49.0894 156.327 49.9069 155.004 50.206L148.174 51.749C146.592 52.1065 145.268 51.6614 144.203 50.414C143.315 49.3476 142.871 47.99 142.871 46.3409V32.9173C142.871 30.9465 143.468 29.1626 144.663 27.5654C145.664 26.2332 146.834 25.4157 148.174 25.1129L155.004 23.5699ZM154.931 44.8832C155.383 44.781 155.706 44.4366 155.9 43.8499C155.948 43.6579 155.972 43.4815 155.972 43.3205V30.0478C155.972 29.4445 155.746 29.0932 155.294 28.9944C155.165 28.9632 155.044 28.9604 154.931 28.9866L148.247 30.4967C147.762 30.6061 147.432 30.9524 147.254 31.5354C147.222 31.7238 147.198 31.8901 147.181 32.0345V45.3073C147.181 45.8906 147.399 46.2436 147.835 46.3663C147.964 46.4174 148.102 46.4268 148.247 46.3939L154.931 44.8832Z" fill="white"/>
<path fill-rule="evenodd" clip-rule="evenodd" d="M180 17.9226L172.711 32.9025L180 44.5586L174.6 45.7788C174.018 44.9849 172.864 43.0739 171.136 40.0453C170.216 38.4434 169.474 37.2336 168.908 36.4162L166.705 36.9141V47.5624L162.394 48.5363V48.1443V21.9003L166.705 20.9264V31.5445L168.933 31.0412C169.482 30.0122 170.62 27.5931 172.347 23.7841C173.268 21.7662 174.018 20.2192 174.6 19.1427L180 17.9226Z" fill="white"/>
<path fill-rule="evenodd" clip-rule="evenodd" d="M36.1694 47.3187V75.125L0 62.2757V34.4694L36.1694 47.3187Z" fill="white"/>
<path fill-rule="evenodd" clip-rule="evenodd" d="M2.33044 32.5634L143.108 0L179.277 12.8493L38.4997 45.4127L2.33044 32.5634Z" fill="#5B606D"/>
</g>
<defs>
<clipPath id="clip0_1_7">
<rect width="180" height="76" fill="white"/>
</clipPath>
</defs>
</svg>
