<?xml version="1.0" encoding="UTF-8" standalone="no"?>
<!-- Created with Inkscape (http://www.inkscape.org/) -->

<svg
   width="51.414783mm"
   height="21.855085mm"
   viewBox="0 0 51.414783 21.855085"
   version="1.1"
   id="svg63"
   inkscape:version="1.1.1 (3bf5ae0d25, 2021-09-20)"
   sodipodi:docname="лого белое.svg"
   xmlns:inkscape="http://www.inkscape.org/namespaces/inkscape"
   xmlns:sodipodi="http://sodipodi.sourceforge.net/DTD/sodipodi-0.dtd"
   xmlns="http://www.w3.org/2000/svg"
   xmlns:svg="http://www.w3.org/2000/svg">
  <sodipodi:namedview
     id="namedview65"
     pagecolor="#ffffff"
     bordercolor="#666666"
     borderopacity="1.0"
     inkscape:pageshadow="2"
     inkscape:pageopacity="0.0"
     inkscape:pagecheckerboard="0"
     inkscape:document-units="mm"
     showgrid="false"
     fit-margin-top="0"
     fit-margin-left="0"
     fit-margin-right="0"
     fit-margin-bottom="0"
     inkscape:zoom="0.7500982"
     inkscape:cx="-98.653749"
     inkscape:cy="113.98507"
     inkscape:window-width="1920"
     inkscape:window-height="1027"
     inkscape:window-x="-8"
     inkscape:window-y="-8"
     inkscape:window-maximized="1"
     inkscape:current-layer="layer1" />
  <defs
     id="defs60" />
  <g
     inkscape:label="Слой 1"
     inkscape:groupmode="layer"
     id="layer1">
    <g
       id="Layer1003"
       transform="matrix(0.26458333,0,0,0.26458333,-86.151163,-21.543301)">
      <g
         id="Layer1004">
        <path
           d="m 374.3494,162.9669 -4.6537,1.0585 v -28.9826 l 14.2749,-3.2469 -1.0458,6.0737 -8.5754,1.9505 c 0,0 0,7.7156 0,23.1468 z"
           style="fill:#ffffff;fill-rule:evenodd"
           id="path121" />
        <path
           d="m 393.67,146.9335 -1.8301,-11.0261 -1.5947,0.3627 c -0.3662,1.7881 -1.29,7.0364 -2.7714,15.7446 -0.6101,3.5048 -1.1243,6.2774 -1.5426,8.3179 l -5.0197,1.1417 5.5687,-30.2164 9.1245,-2.0754 5.5687,27.6831 -5.0197,1.1418 -1.2287,-5.4908 -0.0262,0.006 -0.0261,0.006 -0.0261,0.006 -0.0262,0.006 -0.0261,0.006 -0.0262,0.006 -0.0261,0.006 -0.0262,0.006 -0.0261,0.006 -0.0261,0.006 -0.0262,0.006 -0.0261,0.006 -0.0262,0.006 -0.0261,0.006 -0.0262,0.006 -0.0261,0.006 -0.0261,0.006 -0.0262,0.006 -0.0261,0.006 -0.0262,0.006 -0.0261,0.006 -0.0262,0.006 -0.0261,0.006 -0.0262,0.006 -0.0261,0.006 -0.0261,0.006 -0.0262,0.006 -0.0261,0.006 -0.0262,0.006 -0.0261,0.006 -0.0262,0.006 -0.0261,0.006 -0.0261,0.006 -0.0262,0.006 -0.0261,0.006 -0.0262,0.006 -0.0263,0.006 -0.0261,0.006 -0.0261,0.006 -0.0262,0.006 -0.0261,0.006 -0.0262,0.006 -0.0261,0.006 -0.0262,0.006 -0.0261,0.006 -0.0262,0.006 -0.0261,0.006 -0.0261,0.006 -0.0262,0.006 -0.0261,0.006 -0.0262,0.006 -0.0261,0.006 -0.0262,0.006 -0.0261,0.006 -0.0261,0.006 -0.0262,0.006 -0.0261,0.006 -0.0262,0.006 -0.0261,0.006 -0.0262,0.006 -0.0261,0.006 -0.0261,0.006 -0.0262,0.006 -0.0261,0.006 -0.0262,0.006 -0.0261,0.006 -0.0262,0.006 -0.0261,0.006 -0.0262,0.006 -0.0261,0.006 -0.0261,0.006 -0.0262,0.006 -0.0261,0.006 -0.0262,0.006 -0.0261,0.006 -0.0262,0.006 -0.0261,0.006 -0.0261,0.006 -0.0262,0.006 -0.0261,0.006 -0.0262,0.006 -0.0261,0.006 -0.0262,0.006 -0.0261,0.006 -0.0261,0.006 -0.0262,0.006 -0.0261,0.006 -0.0262,0.006 -0.0261,0.006 -0.0262,0.006 -0.0261,0.006 -0.0262,0.006 -0.0261,0.006 -0.0261,0.006 -0.0262,0.006 -0.0261,0.006 -0.0262,0.006 -0.0261,0.006 -0.0262,0.006 -0.0261,0.006 -0.0261,0.006 -0.0262,0.006 -0.0261,0.006 -0.0262,0.006 -0.0261,0.006 -0.0262,0.006 -0.0261,0.006 -0.0261,0.006 -0.0262,0.006 -0.0261,0.006 -0.0523,0.0119 -0.0262,0.006 -0.0261,0.006 -0.0262,0.006 -0.0261,0.006 -0.0261,0.006 -0.0262,0.006 -0.0261,0.006 -0.0262,0.006 -0.0261,0.006 -0.0262,0.006 -0.0261,0.006 -0.0261,0.006 -0.0262,0.006 -0.0261,0.006 -0.0262,0.006 -0.0261,0.006 -0.0262,0.006 -0.0261,0.006 -0.0261,0.006 -0.0262,0.006 -0.0261,0.006 -0.0262,0.006 -0.0261,0.006 -0.0262,0.006 -0.0261,0.006 -0.0262,0.006 -0.0261,0.006 -0.0261,0.006 -0.0262,0.006 -0.0261,0.006 -0.0262,0.006 -0.0261,0.006 -0.0262,0.006 -0.0261,0.006 -0.0261,0.006 -0.0262,0.006 -0.0261,0.006 -0.0262,0.006 -0.0261,0.006 -0.0262,0.006 -0.0261,0.006 -0.0261,0.006 -0.0262,0.006 -0.0261,0.006 -0.0262,0.006 -0.0261,0.006 -0.0262,0.006 -0.0261,0.006 -0.0262,0.006 -0.0261,0.006 -0.0261,0.006 -0.0262,0.006 -0.0261,0.006 -0.0262,0.006 -0.0261,0.006 -0.0262,0.006 -0.0261,0.006 -0.0261,0.006 -0.0262,0.006 -0.0261,0.006 -0.0262,0.006 -0.0261,0.006 -0.0262,0.006 -0.0261,0.006 -0.0261,0.006 -0.0262,0.006 -0.0261,0.006 -0.0263,0.006 -0.0262,0.006 -0.0261,0.006 -0.0262,0.006 -0.0261,0.006 -0.0261,0.006 -0.0262,0.006 -0.0261,0.006 -0.0262,0.006 -0.0261,0.006 -0.0262,0.006 -0.0261,0.006 -0.0261,0.006 -0.0262,0.006 -0.0261,0.006 -0.0262,0.006 -0.0261,0.006 -0.0262,0.006 -0.0261,0.006 -0.0261,0.006 -0.0262,0.006 -0.0261,0.006 -0.0262,0.006 -0.0261,0.006 -0.0262,0.006 -0.0261,0.006 -0.0262,0.006 -0.0261,0.006 -0.0261,0.006 -0.0262,0.006 -0.0261,0.006 -0.0262,0.006 -0.0261,0.006 -0.0262,0.006 -0.0261,0.006 -0.2614,0.0595 1.0457,-6.1065 z"
           style="fill:#ffffff;fill-rule:evenodd"
           id="path123" />
        <path
           d="m 410.2925,154.7915 -6.9201,1.574 -1.0224,-5.6033 c 0,0 1.2583,-0.2862 7.8641,-1.7887 0.488,-0.111 0.8366,-0.4746 1.0457,-1.0903 0.0523,-0.2086 0.0785,-0.4004 0.0785,-0.5753 v -2.8851 c 0,-0.6557 -0.245,-1.0355 -0.732,-1.1449 -0.1398,-0.0314 -0.2708,-0.0367 -0.3922,-0.009 l -5.2551,1.1953 -0.003,-5.8682 5.2578,-1.1959 c 0.5229,-0.1189 0.8702,-0.5051 1.0457,-1.1558 0.0503,-0.1867 0.0785,-0.3675 0.0785,-0.5424 v -2.8525 c 0,-0.6337 -0.2276,-1.0165 -0.6798,-1.1567 -0.1577,-0.0488 -0.3052,-0.0617 -0.4444,-0.0301 l -10.9312,2.4864 -1.0224,-5.6033 12.032,-2.7367 c 1.7081,-0.3886 3.1438,0.0867 4.2877,1.4508 0.9647,1.1505 1.4379,2.6455 1.4379,4.4596 v 3.0492 c -0.0174,1.5558 -0.3922,3.0508 -1.1242,4.485 0.7494,1.1192 1.1242,2.4547 1.1242,4.0065 v 3.049 c 0,2.1421 -0.6394,4.088 -1.9346,5.817 -1.0924,1.4582 -2.3623,2.3405 -3.791,2.6655 z"
           style="fill:#ffffff;fill-rule:evenodd"
           id="path125" />
        <path
           d="m 431.6725,120.9787 c 1.7081,-0.3886 3.1372,0.095 4.2877,1.4508 0.9585,1.1591 1.4378,2.6347 1.4378,4.4268 v 14.5897 c 0,2.1422 -0.6448,4.081 -1.9346,5.8171 -1.0981,1.4518 -2.3618,2.3403 -3.7909,2.6654 l -7.3728,1.6769 c -1.7082,0.3886 -3.1373,-0.0952 -4.2878,-1.4509 -0.9585,-1.1589 -1.4379,-2.6345 -1.4379,-4.4269 V 131.138 c 0,-2.142 0.645,-4.0809 1.9348,-5.8169 1.0805,-1.4479 2.3441,-2.3364 3.7909,-2.6655 z m -0.0786,23.1646 c 0.4881,-0.111 0.8367,-0.4854 1.0459,-1.1231 0.0523,-0.2086 0.0784,-0.4004 0.0784,-0.5753 v -14.4258 c 0,-0.6556 -0.244,-1.0373 -0.732,-1.1448 -0.1395,-0.0339 -0.2702,-0.0369 -0.3923,-0.009 l -7.2157,1.6413 c -0.5231,0.119 -0.8803,0.4953 -1.0721,1.129 -0.0347,0.2046 -0.0609,0.3855 -0.0784,0.5424 v 14.4257 c 0,0.6339 0.2353,1.0176 0.7059,1.1511 0.1395,0.0556 0.2877,0.0656 0.4446,0.03 z"
           style="fill:#ffffff;fill-rule:evenodd"
           id="path127" />
        <path
           d="m 451.5187,145.4143 -11.399,2.5928 v -28.9826 l 14.2488,-3.241 v 5.8359 l -9.5951,2.1824 c 0,0 0,5.7703 0,17.311 l 6.6669,-1.5164 c 0.488,-0.111 0.8366,-0.4746 1.0457,-1.0903 0.0523,-0.2086 0.0785,-0.4004 0.0785,-0.5754 v -4.2947 c 0,-0.6121 -0.2266,-0.9978 -0.6798,-1.157 -0.1568,-0.0299 -0.3049,-0.029 -0.4444,0.003 l -5.255,1.1952 1.0196,-6.1005 4.3138,-0.9812 c 1.7081,-0.3885 3.1374,0.095 4.2877,1.451 0.9587,1.1589 1.438,2.6345 1.438,4.4268 v 4.4587 c 0,2.1422 -0.6449,4.0811 -1.9347,5.8171 -1.098,1.4518 -2.3617,2.3403 -3.791,2.6654 z"
           style="fill:#ffffff;fill-rule:evenodd"
           id="path129" />
        <path
           d="m 469.147,118.3235 c 0.366,1.6215 1.2986,6.4476 2.7975,14.4779 0.5926,3.2312 1.098,5.772 1.5163,7.6221 l 5.0197,-1.1418 -5.5687,-27.6831 -9.1245,2.0754 -5.5687,30.2164 5.0458,-1.1477 c 0.3487,-1.7841 1.2725,-7.0324 2.7714,-15.7445 0.6101,-3.5048 1.1242,-6.2775 1.5426,-8.3179 z"
           style="fill:#ffffff;fill-rule:evenodd"
           id="path131" />
        <path
           d="m 492.9488,107.041 c 1.7081,-0.3885 3.1372,0.0951 4.2877,1.4508 0.9585,1.1591 1.4379,2.6348 1.4379,4.4269 v 14.5897 c 0,2.1421 -0.6448,4.081 -1.9346,5.817 -1.0982,1.4519 -2.3619,2.3404 -3.791,2.6655 l -7.3727,1.6769 c -1.7083,0.3886 -3.1374,-0.0952 -4.2878,-1.4509 -0.9586,-1.1589 -1.4379,-2.6346 -1.4379,-4.4269 v -14.5897 c 0,-2.1419 0.6449,-4.0808 1.9347,-5.8169 1.0805,-1.4478 2.3442,-2.3363 3.791,-2.6654 z m -0.0786,23.1647 c 0.4882,-0.111 0.8368,-0.4854 1.0459,-1.1231 0.0523,-0.2086 0.0785,-0.4004 0.0785,-0.5753 v -14.4258 c 0,-0.6557 -0.2441,-1.0373 -0.7321,-1.1449 -0.1394,-0.0338 -0.2702,-0.0369 -0.3923,-0.009 l -7.2157,1.6413 c -0.523,0.1189 -0.8803,0.4953 -1.072,1.129 -0.0348,0.2046 -0.0609,0.3855 -0.0785,0.5424 v 14.4257 c 0,0.6339 0.2353,1.0176 0.7059,1.151 0.1395,0.0557 0.2877,0.0657 0.4446,0.03 z"
           style="fill:#ffffff;fill-rule:evenodd"
           id="path133" />
        <path
           d="m 519.9343,100.9031 -7.8695,16.2812 7.8695,12.6686 -5.8302,1.3261 c -0.6275,-0.8628 -1.8737,-2.9398 -3.7386,-6.2315 -0.9936,-1.741 -1.7953,-3.056 -2.4054,-3.9443 l -2.3792,0.5411 v 11.5733 l -4.6536,1.0585 v -0.4262 -28.5236 l 4.6536,-1.0585 v 11.5405 l 2.4054,-0.5471 c 0.5925,-1.1183 1.8214,-3.7475 3.6864,-7.8873 0.9934,-2.1933 1.8039,-3.8747 2.4314,-5.0447 z"
           style="fill:#ffffff;fill-rule:evenodd"
           id="path135" />
      </g>
      <path
         d="m 364.6583,132.8526 v 30.2219 L 325.6107,149.109 v -30.2218 z"
         style="fill:#ffffff;fill-rule:evenodd"
         id="path138" />
      <path
         d="M 328.1265,116.8157 480.1067,81.4235 519.1543,95.389 367.174,130.7811 Z"
         style="fill:#ffffff;fill-rule:evenodd"
         id="path140" />
    </g>
  </g>
</svg>
